<svg width="282" height="84" viewBox="0 0 282 84" fill="none" xmlns="http://www.w3.org/2000/svg">
<g clip-path="url(#clip0_82_597)">
<path d="M118.117 54.7562C118.117 55.0044 118.117 55.2526 118.105 55.4924H95.6846L107.021 36.9137L84.3947 55.4924H81.4071L96.5599 32.4162L73.2268 52.0804L98.6554 24.5657V20.3796L63.5443 55.4882H60.098L66.1111 44.4403L55.3346 53.6497L66.1111 40.1532V37.5363L49.1405 55.4924H40.7288L46.2328 48.4244L38.4902 53.3426L42.4625 44.76L31.8248 55.4924H29.3042L43.8132 40.9904L51.3665 48.5422L66.6876 33.224L74.6365 41.1713L99.1183 16.6941C110.665 25.3819 118.13 39.1939 118.13 54.7562H118.117Z" fill="#48AF4D"/>
<path d="M102.539 0.488037V11.3299L99.1057 7.89683L99.0888 7.88L98.9668 7.9936L73.7948 33.1608L65.846 25.2093L50.5249 40.5275L42.9716 32.9757L22.9207 53.0227C23.8296 27.5358 44.781 7.14796 70.4958 7.14796C76.833 7.14796 82.884 8.38907 88.409 10.6357L95.1291 3.92528L91.6955 0.492244H102.539V0.488037Z" fill="#1DB4FF"/>
<path d="M142.178 55.3789V41.3228H143.84V55.3789H142.178Z" fill="#6D6D6D"/>
<path d="M157.617 41.3269H159.279V55.6144H158.682L149.736 44.8399V55.3788H148.074V41.0913H148.671L157.617 51.8869V41.3269Z" fill="#6D6D6D"/>
<path d="M173.229 41.3269H175.059L168.966 55.6144H168.347L162.254 41.3269H164.085L168.663 52.3581L173.22 41.3269H173.229Z" fill="#6D6D6D"/>
<path d="M178.043 55.3789V41.3228H187.052V42.8121H179.705V47.1118H185.327V48.6011H179.705V53.8811H187.309V55.3704H178.043V55.3789Z" fill="#6D6D6D"/>
<path d="M189.417 52.5895L190.654 51.6724C191.706 53.2753 193.01 54.0788 194.571 54.0788C195.421 54.0788 196.107 53.8643 196.625 53.4394C197.142 53.0144 197.403 52.4465 197.403 51.7355C197.403 51.138 197.235 50.6879 196.903 50.385C196.57 50.0778 195.956 49.7076 195.06 49.2659L193.482 48.5212C192.417 48.0248 191.622 47.4904 191.096 46.9225C190.57 46.3545 190.309 45.6309 190.309 44.7516C190.309 43.6746 190.721 42.7911 191.546 42.1095C192.371 41.4279 193.368 41.0872 194.55 41.0872C195.472 41.0872 196.322 41.3017 197.096 41.7351C197.87 42.1684 198.493 42.7448 198.96 43.4684L197.748 44.3856C196.953 43.2076 195.88 42.6186 194.534 42.6186C193.822 42.6186 193.229 42.8037 192.754 43.1739C192.278 43.5441 192.038 44.0406 192.038 44.6632C192.038 45.0755 192.131 45.4163 192.316 45.6856C192.484 45.9422 192.707 46.1526 192.977 46.3251C193.246 46.4933 193.688 46.7289 194.298 47.0277L195.851 47.7723C196.999 48.3403 197.837 48.9167 198.354 49.4973C198.872 50.0778 199.133 50.8099 199.133 51.6892C199.133 52.8377 198.708 53.7801 197.854 54.5122C197.004 55.2442 195.914 55.6102 194.597 55.6102C193.519 55.6102 192.522 55.3452 191.613 54.8109C190.704 54.2766 189.972 53.5361 189.421 52.5853L189.417 52.5895Z" fill="#6D6D6D"/>
<path d="M206.156 55.3788V42.8162H201.216V41.3269H212.779V42.8162H207.818V55.3788H206.156Z" fill="#6D6D6D"/>
<path d="M227.861 41.0913H228.437V55.3788H226.775V45.3069L222.281 51.3988H221.683L217.168 45.2648V55.3788H215.506V41.0913H216.104L221.961 49.2027L227.861 41.0913Z" fill="#6D6D6D"/>
<path d="M232.691 55.3789V41.3228H241.7V42.8121H234.353V47.1118H239.975V48.6011H234.353V53.8811H241.957V55.3704H232.691V55.3789Z" fill="#6D6D6D"/>
<path d="M254.674 41.3269H256.336V55.6144H255.738L246.792 44.8399V55.3788H245.13V41.0913H245.727L254.674 51.8869V41.3269Z" fill="#6D6D6D"/>
<path d="M264.003 55.3788V42.8162H259.062V41.3269H270.626V42.8162H265.665V55.3788H264.003Z" fill="#6D6D6D"/>
<path d="M272.288 52.5895L273.525 51.6724C274.577 53.2753 275.882 54.0788 277.443 54.0788C278.293 54.0788 278.979 53.8643 279.496 53.4394C280.014 53.0144 280.275 52.4465 280.275 51.7355C280.275 51.138 280.106 50.6879 279.774 50.385C279.442 50.0778 278.827 49.7076 277.931 49.2659L276.353 48.5212C275.288 48.0248 274.493 47.4904 273.967 46.9225C273.441 46.3545 273.18 45.6309 273.18 44.7516C273.18 43.6746 273.593 42.7911 274.417 42.1095C275.242 41.4279 276.239 41.0872 277.422 41.0872C278.343 41.0872 279.193 41.3017 279.968 41.7351C280.742 42.1684 281.365 42.7448 281.832 43.4684L280.62 44.3856C279.825 43.2076 278.751 42.6186 277.405 42.6186C276.694 42.6186 276.1 42.8037 275.625 43.1739C275.149 43.5441 274.91 44.0406 274.91 44.6632C274.91 45.0755 275.002 45.4163 275.187 45.6856C275.356 45.9422 275.579 46.1526 275.848 46.3251C276.117 46.4933 276.559 46.7289 277.169 47.0277L278.722 47.7723C279.871 48.3403 280.708 48.9167 281.226 49.4973C281.743 50.0778 282.004 50.8099 282.004 51.6892C282.004 52.8377 281.579 53.7801 280.725 54.5122C279.875 55.2442 278.785 55.6102 277.468 55.6102C276.391 55.6102 275.394 55.3452 274.485 54.8109C273.576 54.2766 272.844 53.5361 272.292 52.5853L272.288 52.5895Z" fill="#6D6D6D"/>
<path d="M141.787 32.2353V6.93347H150.068C154.108 6.88298 157.432 8.03995 160.037 10.4044C162.646 12.7688 163.921 15.8021 163.87 19.5086C163.921 23.1899 162.629 26.2443 159.999 28.6718C157.365 31.0993 154.057 32.29 150.068 32.2353H141.787ZM146.963 27.5569H150.03C152.585 27.5569 154.642 26.8207 156.203 25.3524C157.765 23.8841 158.543 21.9362 158.543 19.5044C158.543 17.0727 157.777 15.1206 156.241 13.7154C154.705 12.3102 152.635 11.6076 150.03 11.6076H146.963V27.5569Z" fill="#6D6D6D"/>
<path d="M166.786 19.5844C166.736 15.9789 168.045 12.874 170.717 10.2697C173.389 7.66131 176.549 6.39917 180.206 6.47489C183.862 6.39917 187.035 7.66552 189.732 10.2697C192.43 12.8782 193.751 15.9831 193.7 19.5844C193.751 23.1899 192.43 26.2948 189.732 28.899C187.035 31.5074 183.858 32.7696 180.206 32.6939C176.549 32.7696 173.384 31.5032 170.717 28.899C168.045 26.2906 166.736 23.1857 166.786 19.5844ZM188.373 19.5844C188.373 17.1821 187.599 15.1963 186.055 13.6228C184.506 12.0494 182.57 11.2668 180.248 11.2668C177.925 11.2668 175.951 12.0452 174.42 13.606C172.888 15.1669 172.118 17.1569 172.118 19.5844C172.118 22.0119 172.884 24.0061 174.42 25.5627C175.951 27.1236 177.895 27.9019 180.248 27.9019C182.6 27.9019 184.51 27.1236 186.055 25.5627C187.599 24.0061 188.373 22.0119 188.373 19.5844Z" fill="#6D6D6D"/>
<path d="M196.617 19.5844C196.566 15.9789 197.875 12.874 200.547 10.2697C203.219 7.66131 206.379 6.39917 210.036 6.47489C213.692 6.39917 216.865 7.66552 219.562 10.2697C222.26 12.8782 223.581 15.9831 223.531 19.5844C223.581 23.1899 222.26 26.2948 219.562 28.899C216.865 31.5074 213.688 32.7696 210.036 32.6939C206.379 32.7696 203.215 31.5032 200.547 28.899C197.875 26.2906 196.566 23.1857 196.617 19.5844ZM218.203 19.5844C218.203 17.1821 217.429 15.1963 215.885 13.6228C214.336 12.0494 212.401 11.2668 210.078 11.2668C207.755 11.2668 205.781 12.0452 204.25 13.606C202.718 15.1669 201.948 17.1569 201.948 19.5844C201.948 22.0119 202.714 24.0061 204.25 25.5627C205.781 27.1236 207.726 27.9019 210.078 27.9019C212.43 27.9019 214.34 27.1236 215.885 25.5627C217.429 24.0061 218.203 22.0119 218.203 19.5844Z" fill="#6D6D6D"/>
<path d="M249.262 32.2354H243.434L236.878 23.3036H233.083V32.2354H227.907V6.93359H237.417C240.076 6.93359 242.26 7.68667 243.973 9.19704C245.685 10.7032 246.544 12.6721 246.544 15.0997C246.544 16.6858 246.153 18.1078 245.374 19.3741C244.596 20.6405 243.502 21.6166 242.096 22.3065L249.266 32.2354H249.262ZM233.083 11.4941V18.7389H237.417C238.616 18.7389 239.559 18.4065 240.236 17.7418C240.914 17.077 241.254 16.1977 241.254 15.0955C241.254 13.9932 240.901 13.1518 240.198 12.487C239.496 11.8223 238.57 11.4899 237.417 11.4899H233.083V11.4941Z" fill="#6D6D6D"/>
<path d="M129.828 4.78784H128.986V57.0238H129.828V4.78784Z" fill="#6D6D6D"/>
<path d="M23.8044 72.8761V66.4771H28.8076V72.8761H28.0502V67.1544H24.5576V72.8761H23.8002H23.8044Z" fill="#6D6D6D"/>
<path d="M30.7475 72.8761V66.4771H32.9988C33.6131 66.4771 34.1054 66.6495 34.4842 66.9945C34.8629 67.3395 35.048 67.7855 35.048 68.3282C35.048 68.8709 34.8587 69.3253 34.4842 69.6745C34.1096 70.0237 33.6131 70.1962 32.9988 70.1962H31.5049V72.8719H30.7475V72.8761ZM31.5049 69.523H32.9777C33.3775 69.523 33.6931 69.4179 33.9203 69.2033C34.1475 68.9887 34.2611 68.7026 34.2611 68.3408C34.2611 67.979 34.1475 67.7013 33.9203 67.4826C33.6931 67.268 33.3817 67.1586 32.9777 67.1586H31.5049V69.523Z" fill="#6D6D6D"/>
<path d="M36.0579 69.6746C36.0369 68.7617 36.3567 67.9791 37.0173 67.327C37.678 66.6749 38.4607 66.3552 39.3738 66.3678C40.2785 66.3552 41.0654 66.6749 41.7302 67.327C42.3951 67.9791 42.7191 68.7617 42.6981 69.6746C42.7191 70.5876 42.3951 71.3701 41.7302 72.0222C41.0654 72.6743 40.2785 72.9941 39.3738 72.9814C38.4691 73.0025 37.6864 72.6827 37.0215 72.0222C36.3609 71.3617 36.0369 70.5792 36.0579 69.6746ZM41.9154 69.6662C41.928 68.9426 41.6839 68.3241 41.1874 67.8151C40.6909 67.306 40.0891 67.0536 39.3822 67.0704C38.6584 67.0704 38.0525 67.3186 37.5686 67.8108C37.0847 68.3031 36.8406 68.9257 36.8406 69.6662C36.8406 70.4067 37.0847 71.0335 37.5686 71.5342C38.0525 72.0348 38.6584 72.2873 39.3822 72.2873C40.0849 72.2999 40.6867 72.0474 41.1874 71.5342C41.6839 71.0209 41.928 70.3982 41.9154 69.6662Z" fill="#6D6D6D"/>
<path d="M47.5793 72.2745V73.0696H46.8219V72.2745C45.9172 72.2619 45.1808 72.0179 44.6127 71.5382C44.0446 71.0586 43.7585 70.4233 43.7585 69.6282C43.7585 68.833 44.0446 68.202 44.6127 67.7308C45.1808 67.2638 45.9172 67.0198 46.8219 67.0071V66.2793H47.5793V67.0071C48.4924 67.0198 49.233 67.2596 49.8011 67.7308C50.3692 68.1978 50.6553 68.833 50.6553 69.6282C50.6553 70.4233 50.3692 71.067 49.8011 71.5424C49.233 72.0179 48.4924 72.2619 47.5793 72.2745ZM46.8219 71.5845V67.6971C46.1234 67.6971 45.5679 67.8696 45.1597 68.2146C44.7474 68.5596 44.5454 69.0392 44.5454 69.645C44.5454 70.2508 44.7516 70.7178 45.1597 71.067C45.5721 71.412 46.1234 71.5845 46.8219 71.5845ZM49.2372 71.0712C49.658 70.7305 49.8684 70.2551 49.8684 69.645C49.8684 69.035 49.6622 68.5596 49.2457 68.2146C48.8333 67.8696 48.2778 67.6971 47.5793 67.6971V71.5845C48.2652 71.5845 48.8164 71.412 49.2372 71.0712Z" fill="#6D6D6D"/>
<path d="M52.1281 72.8761V66.4771H56.2309V67.1544H52.8855V69.1149H55.444V69.7923H52.8855V72.1946H56.3487V72.8719H52.1323L52.1281 72.8761Z" fill="#6D6D6D"/>
<path d="M57.1819 69.6746C57.1608 68.7617 57.4848 67.9791 58.1455 67.327C58.8061 66.6749 59.5972 66.3552 60.5061 66.3678C61.07 66.3678 61.5834 66.4898 62.0547 66.738C62.5218 66.982 62.8921 67.3186 63.1656 67.7477L62.6017 68.1937C62.0799 67.4448 61.3814 67.0704 60.5188 67.0704C59.795 67.0704 59.1891 67.3186 58.7009 67.8151C58.2128 68.3115 57.9688 68.9342 57.9688 69.6746C57.9688 70.4151 58.2128 71.0377 58.7009 71.5342C59.1891 72.0306 59.795 72.283 60.5188 72.283C61.3856 72.283 62.0799 71.9086 62.6017 71.1597L63.1656 71.6057C62.8921 72.0306 62.526 72.3672 62.0547 72.6154C61.5834 72.8636 61.07 72.9856 60.5061 72.9856C59.593 72.9983 58.8061 72.6785 58.1455 72.0264C57.4848 71.3743 57.1608 70.5918 57.1819 69.6788V69.6746Z" fill="#6D6D6D"/>
<path d="M64.2386 69.6746C64.2175 68.7617 64.5415 67.9791 65.2022 67.327C65.8628 66.6749 66.6539 66.3552 67.5629 66.3678C68.1267 66.3678 68.6401 66.4898 69.1114 66.738C69.5785 66.982 69.9488 67.3186 70.2223 67.7477L69.6584 68.1937C69.1366 67.4448 68.4381 67.0704 67.5755 67.0704C66.8517 67.0704 66.2458 67.3186 65.7576 67.8151C65.2695 68.3115 65.0255 68.9342 65.0255 69.6746C65.0255 70.4151 65.2695 71.0377 65.7576 71.5342C66.2458 72.0306 66.8517 72.283 67.5755 72.283C68.4423 72.283 69.1366 71.9086 69.6584 71.1597L70.2223 71.6057C69.9488 72.0306 69.5827 72.3672 69.1114 72.6154C68.6401 72.8636 68.1267 72.9856 67.5629 72.9856C66.6497 72.9983 65.8628 72.6785 65.2022 72.0264C64.5415 71.3743 64.2175 70.5918 64.2386 69.6788V69.6746Z" fill="#6D6D6D"/>
<path d="M76.6899 66.3677H76.9634V72.8719H76.206V67.9075L72.0359 72.9771H71.7624V66.4729H72.5198V71.4373L76.6899 66.3677Z" fill="#6D6D6D"/>
<path d="M78.4867 69.6746C78.4657 68.7617 78.7855 67.9791 79.4461 67.327C80.1068 66.6749 80.8894 66.3552 81.8026 66.3678C82.7073 66.3552 83.4942 66.6749 84.159 67.327C84.8239 67.9791 85.1479 68.7617 85.1268 69.6746C85.1479 70.5876 84.8239 71.3701 84.159 72.0222C83.4942 72.6743 82.7073 72.9941 81.8026 72.9814C80.8978 73.0025 80.1152 72.6827 79.4503 72.0222C78.7897 71.3617 78.4657 70.5792 78.4867 69.6746ZM84.3442 69.6662C84.3568 68.9426 84.1127 68.3241 83.6162 67.8151C83.1196 67.306 82.5179 67.0536 81.811 67.0704C81.0872 67.0704 80.4813 67.3186 79.9973 67.8108C79.5134 68.3031 79.2694 68.9257 79.2694 69.6662C79.2694 70.4067 79.5134 71.0335 79.9973 71.5342C80.4813 72.0348 81.0872 72.2873 81.811 72.2873C82.5137 72.2999 83.1154 72.0474 83.6162 71.5342C84.1127 71.0209 84.3568 70.3982 84.3442 69.6662Z" fill="#6D6D6D"/>
<path d="M86.6501 72.8761V66.4771H87.4076V69.1149H90.997V66.4771H91.7544V72.8761H90.997V69.7923H87.4076V72.8761H86.6501Z" fill="#6D6D6D"/>
<path d="M98.1294 72.8763L97.5866 71.5763H94.4432L93.9004 72.8763H93.1051L95.8781 66.3721H96.1601L98.9331 72.8763H98.1294ZM97.2962 70.899L96.017 67.7478L94.7378 70.899H97.2962Z" fill="#6D6D6D"/>
<path d="M101.058 66.4771H105.026V72.8762H104.269V67.1545H101.765C101.715 68.6648 101.618 69.8176 101.483 70.6043C101.34 71.4247 101.134 72.0179 100.869 72.3882C100.599 72.7584 100.242 72.9393 99.7958 72.9393C99.6401 72.9393 99.5138 72.9183 99.4171 72.872V72.2115C99.476 72.2325 99.5643 72.2409 99.678 72.2409C100.137 72.2409 100.469 71.8581 100.671 71.0881C100.873 70.3182 100.995 69.1024 101.033 67.4321L101.054 66.4729L101.058 66.4771Z" fill="#6D6D6D"/>
<path d="M106.953 72.8761V66.4771H107.711V68.9971H109.116C109.764 68.9971 110.282 69.178 110.669 69.5357C111.056 69.8933 111.25 70.3603 111.25 70.9366C111.25 71.513 111.056 71.98 110.669 72.3376C110.282 72.6952 109.764 72.8761 109.116 72.8761H106.953ZM107.711 72.1988H109.108C109.533 72.1988 109.87 72.0852 110.114 71.8538C110.358 71.6266 110.476 71.3237 110.476 70.9493C110.476 70.5748 110.354 70.2635 110.114 70.0321C109.87 69.8049 109.537 69.6871 109.108 69.6871H107.711V72.1988Z" fill="#6D6D6D"/>
<path d="M112.794 72.8761V66.4771H113.552V69.1149H117.141V66.4771H117.898V72.8761H117.141V69.7923H113.552V72.8761H112.794Z" fill="#6D6D6D"/>
<path d="M119.834 72.8761V66.4771H120.591V68.9971H121.997C122.645 68.9971 123.163 69.178 123.55 69.5357C123.937 69.8933 124.13 70.3603 124.13 70.9366C124.13 71.513 123.937 71.98 123.55 72.3376C123.163 72.6952 122.645 72.8761 121.997 72.8761H119.834ZM120.591 72.1988H121.989C122.414 72.1988 122.75 72.0852 122.994 71.8538C123.238 71.6266 123.356 71.3237 123.356 70.9493C123.356 70.5748 123.234 70.2635 122.994 70.0321C122.75 69.8049 122.418 69.6871 121.989 69.6871H120.591V72.1988ZM125.401 72.8761V66.4771H126.159V72.8761H125.401Z" fill="#6D6D6D"/>
<path d="M133.013 66.3678H133.287V72.872H132.529V67.9076L128.359 72.9772H128.086V66.4729H128.843V71.4374L133.013 66.3678ZM129.214 64.2936V64.0496H129.845V64.302C129.845 64.605 129.916 64.8448 130.064 65.0131C130.211 65.1813 130.413 65.2697 130.678 65.2697C130.943 65.2697 131.149 65.1855 131.301 65.0173C131.448 64.849 131.524 64.6092 131.524 64.2978V64.0454H132.155V64.2894C132.155 64.7564 132.02 65.1267 131.751 65.4085C131.482 65.6904 131.124 65.8292 130.678 65.8292C130.232 65.8292 129.883 65.6904 129.618 65.4085C129.348 65.1267 129.214 64.7522 129.214 64.2894V64.2936Z" fill="#6D6D6D"/>
<path d="M141.467 72.2745V73.0696H140.71V72.2745C139.805 72.2619 139.069 72.0179 138.5 71.5382C137.932 71.0586 137.646 70.4233 137.646 69.6282C137.646 68.833 137.932 68.202 138.5 67.7308C139.069 67.2638 139.805 67.0198 140.71 67.0071V66.2793H141.467V67.0071C142.38 67.0198 143.121 67.2596 143.689 67.7308C144.257 68.1978 144.543 68.833 144.543 69.6282C144.543 70.4233 144.257 71.067 143.689 71.5424C143.121 72.0179 142.38 72.2619 141.467 72.2745ZM140.71 71.5845V67.6971C140.011 67.6971 139.456 67.8696 139.047 68.2146C138.635 68.5596 138.433 69.0392 138.433 69.645C138.433 70.2508 138.639 70.7178 139.047 71.067C139.46 71.412 140.011 71.5845 140.71 71.5845ZM143.125 71.0712C143.546 70.7305 143.756 70.2551 143.756 69.645C143.756 69.035 143.55 68.5596 143.133 68.2146C142.721 67.8696 142.166 67.6971 141.467 67.6971V71.5845C142.153 71.5845 142.704 71.412 143.125 71.0712Z" fill="#6D6D6D"/>
<path d="M150.943 66.3677H151.217V72.8719H150.459V67.9075L146.289 72.9771H146.016V66.4729H146.773V71.4373L150.943 66.3677Z" fill="#6D6D6D"/>
<path d="M153.153 72.8761V66.4771H153.91V69.1149H157.499V66.4771H158.257V72.8761H157.499V69.7923H153.91V72.8761H153.153Z" fill="#6D6D6D"/>
<path d="M164.636 72.8763L164.093 71.5763H160.95L160.407 72.8763H159.612L162.385 66.3721H162.667L165.44 72.8763H164.636ZM163.803 70.899L162.524 67.7478L161.244 70.899H163.803Z" fill="#6D6D6D"/>
<path d="M166.795 72.8761V66.4771H167.552V69.1149H171.142V66.4771H171.899V72.8761H171.142V69.7923H167.552V72.8761H166.795Z" fill="#6D6D6D"/>
<path d="M173.418 69.6746C173.397 68.7617 173.721 67.9791 174.382 67.327C175.042 66.6749 175.833 66.3552 176.742 66.3678C177.306 66.3678 177.82 66.4898 178.291 66.738C178.758 66.982 179.128 67.3186 179.402 67.7477L178.838 68.1937C178.316 67.4448 177.618 67.0704 176.751 67.0704C176.027 67.0704 175.421 67.3186 174.933 67.8151C174.445 68.3115 174.201 68.9342 174.201 69.6746C174.201 70.4151 174.445 71.0377 174.933 71.5342C175.421 72.0306 176.027 72.283 176.751 72.283C177.618 72.283 178.312 71.9086 178.838 71.1597L179.402 71.6057C179.128 72.0306 178.758 72.3672 178.291 72.6154C177.824 72.8594 177.306 72.9856 176.742 72.9856C175.829 72.9983 175.042 72.6785 174.382 72.0264C173.717 71.3743 173.397 70.5918 173.418 69.6788V69.6746Z" fill="#6D6D6D"/>
<path d="M180.479 69.6746C180.458 68.7617 180.778 67.9791 181.438 67.327C182.099 66.6749 182.882 66.3552 183.795 66.3678C184.7 66.3552 185.486 66.6749 186.151 67.327C186.816 67.9791 187.14 68.7617 187.119 69.6746C187.14 70.5876 186.816 71.3701 186.151 72.0222C185.486 72.6743 184.7 72.9941 183.795 72.9814C182.89 73.0025 182.107 72.6827 181.443 72.0222C180.778 71.3617 180.458 70.5792 180.479 69.6746ZM186.336 69.6662C186.349 68.9426 186.105 68.3241 185.608 67.8151C185.112 67.306 184.51 67.0536 183.803 67.0704C183.08 67.0704 182.474 67.3186 181.99 67.8108C181.506 68.3031 181.262 68.9257 181.262 69.6662C181.262 70.4067 181.506 71.0335 181.99 71.5342C182.474 72.0348 183.08 72.2873 183.803 72.2873C184.506 72.2999 185.108 72.0474 185.608 71.5342C186.105 71.0209 186.349 70.3982 186.336 69.6662Z" fill="#6D6D6D"/>
<path d="M193.309 71.0334C193.309 71.5761 193.124 72.0179 192.758 72.3629C192.387 72.7036 191.899 72.8761 191.285 72.8761H188.647V66.4771H190.847C191.399 66.4771 191.84 66.6285 192.177 66.9314C192.505 67.2343 192.674 67.6214 192.674 68.0968C192.674 68.6185 192.472 69.0392 192.063 69.359C192.459 69.4768 192.766 69.6787 192.985 69.9732C193.204 70.2677 193.313 70.6211 193.313 71.0334H193.309ZM190.767 67.1544H189.4V69.1402H190.767C191.129 69.1402 191.407 69.0518 191.601 68.8751C191.794 68.6984 191.891 68.4544 191.891 68.1431C191.891 67.8318 191.794 67.592 191.601 67.4153C191.407 67.2428 191.129 67.1544 190.767 67.1544ZM192.177 71.8748C192.413 71.6603 192.531 71.3742 192.531 71.0124C192.531 70.6505 192.413 70.3645 192.177 70.1499C191.941 69.9353 191.617 69.8302 191.201 69.8302H189.396V72.1946H191.201C191.613 72.1946 191.937 72.0894 192.177 71.8748Z" fill="#6D6D6D"/>
<path d="M194.79 72.8761V66.4771H195.548V68.9971H196.953C197.601 68.9971 198.119 69.178 198.506 69.5357C198.893 69.8933 199.087 70.3603 199.087 70.9366C199.087 71.513 198.893 71.98 198.506 72.3376C198.119 72.6952 197.601 72.8761 196.953 72.8761H194.79ZM195.548 72.1988H196.945C197.37 72.1988 197.706 72.0852 197.95 71.8538C198.194 71.6266 198.312 71.3237 198.312 70.9493C198.312 70.5748 198.19 70.2635 197.95 70.0321C197.706 69.8049 197.374 69.6871 196.945 69.6871H195.548V72.1988ZM200.357 72.8761V66.4771H201.115V72.8761H200.357Z" fill="#6D6D6D"/>
<path d="M207.97 66.3678H208.243V72.872H207.486V67.9076L203.316 72.9772H203.042V66.4729H203.799V71.4374L207.97 66.3678ZM204.17 64.2936V64.0496H204.801V64.302C204.801 64.605 204.872 64.8448 205.02 65.0131C205.167 65.1813 205.369 65.2697 205.634 65.2697C205.899 65.2697 206.105 65.1855 206.253 65.0173C206.4 64.849 206.476 64.6092 206.476 64.2978V64.0454H207.107V64.2894C207.107 64.7564 206.972 65.1267 206.703 65.4085C206.434 65.6904 206.076 65.8292 205.63 65.8292C205.184 65.8292 204.835 65.6904 204.57 65.4085C204.3 65.1267 204.166 64.7522 204.166 64.2894L204.17 64.2936Z" fill="#6D6D6D"/>
<path d="M213.07 72.8761V66.4771H213.827V72.8761H213.07ZM214.904 69.4431L218.027 72.8761H217.067L213.915 69.4431L216.794 66.4771H217.761L214.9 69.4431H214.904Z" fill="#6D6D6D"/>
<path d="M218.481 69.6746C218.46 68.7617 218.78 67.9791 219.44 67.327C220.101 66.6749 220.884 66.3552 221.797 66.3678C222.702 66.3552 223.488 66.6749 224.153 67.327C224.818 67.9791 225.142 68.7617 225.121 69.6746C225.142 70.5876 224.818 71.3701 224.153 72.0222C223.488 72.6743 222.702 72.9941 221.797 72.9814C220.892 73.0025 220.109 72.6827 219.445 72.0222C218.78 71.3617 218.46 70.5792 218.481 69.6746ZM224.338 69.6662C224.351 68.9426 224.107 68.3241 223.611 67.8151C223.114 67.306 222.512 67.0536 221.805 67.0704C221.082 67.0704 220.476 67.3186 219.992 67.8108C219.508 68.3031 219.264 68.9257 219.264 69.6662C219.264 70.4067 219.508 71.0335 219.992 71.5342C220.476 72.0348 221.082 72.2873 221.805 72.2873C222.508 72.2999 223.11 72.0474 223.611 71.5342C224.107 71.0209 224.351 70.3982 224.338 69.6662Z" fill="#6D6D6D"/>
<path d="M226.649 72.8761V66.4771H227.406V69.1149H230.995V66.4771H231.753V72.8761H230.995V69.7923H227.406V72.8761H226.649Z" fill="#6D6D6D"/>
<path d="M233.272 69.6746C233.251 68.7617 233.575 67.9791 234.236 67.327C234.896 66.6749 235.687 66.3552 236.596 66.3678C237.16 66.3678 237.673 66.4898 238.145 66.738C238.612 66.982 238.982 67.3186 239.256 67.7477L238.692 68.1937C238.17 67.4448 237.471 67.0704 236.605 67.0704C235.881 67.0704 235.275 67.3186 234.787 67.8151C234.299 68.3115 234.055 68.9342 234.055 69.6746C234.055 70.4151 234.299 71.0377 234.787 71.5342C235.275 72.0306 235.881 72.283 236.605 72.283C237.471 72.283 238.166 71.9086 238.692 71.1597L239.256 71.6057C238.982 72.0306 238.612 72.3672 238.145 72.6154C237.678 72.8594 237.16 72.9856 236.596 72.9856C235.683 72.9983 234.896 72.6785 234.236 72.0264C233.571 71.3743 233.251 70.5918 233.272 69.6788V69.6746Z" fill="#6D6D6D"/>
<path d="M245.151 66.4771H245.917L243.619 71.3742C243.342 71.9632 243.076 72.3713 242.824 72.6069C242.559 72.8509 242.218 72.9771 241.797 72.9771C241.616 72.9771 241.444 72.9434 241.275 72.8803V72.2198C241.448 72.2577 241.616 72.2787 241.78 72.2787C241.999 72.2787 242.184 72.224 242.332 72.1188C242.479 72.0137 242.622 71.8285 242.757 71.5719L240.207 66.4813H241.061L243.173 70.6968L245.151 66.4813V66.4771Z" fill="#6D6D6D"/>
<path d="M247.68 66.4771H251.644V72.8762H250.886V67.1545H248.383C248.332 68.6648 248.235 69.8176 248.101 70.6043C247.958 71.4247 247.752 72.0179 247.486 72.3882C247.217 72.7584 246.859 72.9393 246.413 72.9393C246.258 72.9393 246.131 72.9183 246.035 72.872V72.2115C246.094 72.2325 246.182 72.2409 246.296 72.2409C246.754 72.2409 247.087 71.8581 247.289 71.0881C247.491 70.3182 247.613 69.1024 247.651 67.4321L247.672 66.4729L247.68 66.4771Z" fill="#6D6D6D"/>
<path d="M253.575 72.8761V66.4771H254.333V68.9971H255.738C256.386 68.9971 256.904 69.178 257.291 69.5357C257.678 69.8933 257.872 70.3603 257.872 70.9366C257.872 71.513 257.678 71.98 257.291 72.3376C256.904 72.6952 256.386 72.8761 255.738 72.8761H253.575ZM254.333 72.1988H255.73C256.155 72.1988 256.491 72.0852 256.735 71.8538C256.98 71.6266 257.097 71.3237 257.097 70.9493C257.097 70.5748 256.975 70.2635 256.735 70.0321C256.491 69.8049 256.159 69.6871 255.73 69.6871H254.333V72.1988Z" fill="#6D6D6D"/>
<path d="M260.258 72.8761V67.1544H258.006V66.4771H263.27V67.1544H261.011V72.8761H260.253H260.258Z" fill="#6D6D6D"/>
<path d="M268.227 72.8763L267.685 71.5763H264.541L263.998 72.8763H263.203L265.976 66.3721H266.258L269.031 72.8763H268.227ZM267.394 70.899L266.115 67.7478L264.836 70.899H267.394Z" fill="#6D6D6D"/>
<path d="M270.39 72.8761V66.4771H271.148V69.1149H274.737V66.4771H275.495V72.8761H274.737V69.7923H271.148V72.8761H270.39Z" fill="#6D6D6D"/>
<path d="M278.983 72.8761V67.1544H276.732V66.4771H281.996V67.1544H279.736V72.8761H278.979H278.983Z" fill="#6D6D6D"/>
<path d="M23.1942 83.8905V77.4915H25.4455C26.0598 77.4915 26.5522 77.6639 26.9309 78.0089C27.3096 78.3539 27.4947 78.7999 27.4947 79.3426C27.4947 79.8853 27.3054 80.3397 26.9309 80.6889C26.5564 81.0381 26.0598 81.2106 25.4455 81.2106H23.9516V83.8863H23.1942V83.8905ZM23.9516 80.5374H25.4244C25.8242 80.5374 26.1398 80.4323 26.367 80.2177C26.5942 80.0031 26.7079 79.717 26.7079 79.3552C26.7079 78.9934 26.5942 78.7157 26.367 78.497C26.1398 78.2824 25.8284 78.173 25.4244 78.173H23.9516V80.5374Z" fill="#6D6D6D"/>
<path d="M33.9203 83.8905H33.0366L31.0504 81.2064H29.6828V83.8905H28.9254V77.4915H31.1767C31.791 77.4915 32.2834 77.6639 32.6621 78.0089C33.0408 78.3539 33.2259 78.7999 33.2259 79.3426C33.2259 79.7759 33.1081 80.1504 32.8683 80.4617C32.6284 80.7772 32.3002 80.9918 31.8794 81.118L33.9245 83.8905H33.9203ZM29.6828 78.1688V80.5248H31.1472C31.5554 80.5248 31.871 80.4196 32.0982 80.2093C32.3254 79.9989 32.4391 79.7128 32.4391 79.351C32.4391 78.9892 32.3254 78.7115 32.094 78.4928C31.8626 78.274 31.5512 78.1688 31.1472 78.1688H29.6828Z" fill="#6D6D6D"/>
<path d="M34.5683 80.6932C34.5473 79.7802 34.8671 78.9977 35.5277 78.3456C36.1884 77.6935 36.971 77.3737 37.8842 77.3863C38.7889 77.3737 39.5758 77.6935 40.2406 78.3456C40.9055 78.9977 41.2295 79.7802 41.2084 80.6932C41.2295 81.6061 40.9055 82.3887 40.2406 83.0408C39.5758 83.6929 38.7889 84.0126 37.8842 84C36.9795 84.021 36.1968 83.7013 35.5319 83.0408C34.8713 82.3802 34.5473 81.5977 34.5683 80.6932ZM40.4258 80.6848C40.4384 79.9611 40.1943 79.3427 39.6978 78.8336C39.2012 78.3245 38.5995 78.0721 37.8926 78.0889C37.1688 78.0889 36.5629 78.3372 36.0789 78.8294C35.595 79.3216 35.351 79.9443 35.351 80.6848C35.351 81.4252 35.595 82.0521 36.0789 82.5527C36.5629 83.0534 37.1688 83.3058 37.8926 83.3058C38.5953 83.3184 39.197 83.066 39.6978 82.5527C40.1943 82.0395 40.4384 81.4168 40.4258 80.6848Z" fill="#6D6D6D"/>
<path d="M42.7318 83.8905V77.4915H46.7377V78.1688H43.4892V80.3691H46.1865V81.0591H43.4892V83.8905H42.7318Z" fill="#6D6D6D"/>
<path d="M47.9916 83.8905V77.4915H52.0944V78.1688H48.7491V80.1293H51.3075V80.8067H48.7491V83.209H52.2122V83.8863H47.9958L47.9916 83.8905Z" fill="#6D6D6D"/>
<path d="M53.1674 82.62L53.7313 82.2035C54.211 82.9355 54.8043 83.2973 55.5155 83.2973C55.9026 83.2973 56.214 83.2006 56.4496 83.007C56.6853 82.8135 56.8031 82.5527 56.8031 82.2329C56.8031 81.9595 56.7273 81.7575 56.5759 81.6187C56.4244 81.4798 56.1424 81.3116 55.7385 81.1096L55.0189 80.7688C54.535 80.5417 54.1731 80.3018 53.9333 80.041C53.6934 79.7844 53.5756 79.452 53.5756 79.0523C53.5756 78.5601 53.765 78.1604 54.1395 77.8491C54.514 77.5377 54.9684 77.3821 55.507 77.3821C55.9278 77.3821 56.315 77.4788 56.6642 77.6766C57.0177 77.8743 57.2996 78.1352 57.5142 78.4675L56.963 78.884C56.6011 78.3497 56.113 78.0805 55.4986 78.0805C55.1746 78.0805 54.9053 78.1646 54.6907 78.3329C54.4761 78.5012 54.3667 78.7284 54.3667 79.0103C54.3667 79.1996 54.4088 79.351 54.4929 79.4772C54.5687 79.595 54.6697 79.6918 54.7917 79.7675C54.9137 79.8433 55.1157 79.9527 55.3934 80.0873L56.1004 80.4281C56.6222 80.6889 57.0051 80.9497 57.2407 81.2148C57.4764 81.4798 57.5942 81.8122 57.5942 82.2119C57.5942 82.7336 57.4006 83.1627 57.0135 83.4951C56.6264 83.8274 56.1298 83.9957 55.5281 83.9957C55.0358 83.9957 54.5855 83.8737 54.1689 83.6339C53.7565 83.3899 53.4241 83.0533 53.1716 82.62H53.1674Z" fill="#6D6D6D"/>
<path d="M58.7051 82.62L59.2689 82.2035C59.7487 82.9355 60.342 83.2973 61.0531 83.2973C61.4402 83.2973 61.7516 83.2006 61.9873 83.007C62.2229 82.8135 62.3407 82.5527 62.3407 82.2329C62.3407 81.9595 62.265 81.7575 62.1135 81.6187C61.962 81.4798 61.6801 81.3116 61.2761 81.1096L60.5566 80.7688C60.0727 80.5417 59.7108 80.3018 59.4709 80.041C59.2311 79.7844 59.1132 79.452 59.1132 79.0523C59.1132 78.5601 59.3026 78.1604 59.6771 77.8491C60.0516 77.5377 60.5061 77.3821 61.0447 77.3821C61.4655 77.3821 61.8526 77.4788 62.2019 77.6766C62.5554 77.8743 62.8373 78.1352 63.0519 78.4675L62.5007 78.884C62.1388 78.3497 61.6506 78.0805 61.0363 78.0805C60.7123 78.0805 60.443 78.1646 60.2284 78.3329C60.0138 78.5012 59.9043 78.7284 59.9043 79.0103C59.9043 79.1996 59.9464 79.351 60.0306 79.4772C60.1063 79.595 60.2073 79.6918 60.3293 79.7675C60.4514 79.8433 60.6534 79.9527 60.9311 80.0873L61.638 80.4281C62.1598 80.6889 62.5427 80.9497 62.7784 81.2148C63.014 81.4798 63.1318 81.8122 63.1318 82.2119C63.1318 82.7336 62.9383 83.1627 62.5511 83.4951C62.164 83.8274 61.6675 83.9957 61.0657 83.9957C60.5734 83.9957 60.1232 83.8737 59.7066 83.6339C59.2942 83.3899 58.9618 83.0533 58.7093 82.62H58.7051Z" fill="#6D6D6D"/>
<path d="M64.7772 83.8905V77.4915H65.5346V83.8905H64.7772Z" fill="#6D6D6D"/>
<path d="M67.0453 80.6932C67.0242 79.7802 67.344 78.9977 68.0047 78.3456C68.6653 77.6935 69.448 77.3737 70.3612 77.3863C71.2659 77.3737 72.0527 77.6935 72.7176 78.3456C73.3825 78.9977 73.7065 79.7802 73.6854 80.6932C73.7065 81.6061 73.3825 82.3887 72.7176 83.0408C72.0527 83.6929 71.2659 84.0126 70.3612 84C69.4564 84.021 68.6738 83.7013 68.0089 83.0408C67.3483 82.3802 67.0242 81.5977 67.0453 80.6932ZM72.9028 80.6848C72.9154 79.9611 72.6713 79.3427 72.1748 78.8336C71.6782 78.3245 71.0765 78.0721 70.3696 78.0889C69.6458 78.0889 69.0399 78.3372 68.5559 78.8294C68.072 79.3216 67.828 79.9443 67.828 80.6848C67.828 81.4252 68.072 82.0521 68.5559 82.5527C69.0399 83.0534 69.6458 83.3058 70.3696 83.3058C71.0723 83.3184 71.674 83.066 72.1748 82.5527C72.6713 82.0395 72.9154 81.4168 72.9028 80.6848Z" fill="#6D6D6D"/>
<path d="M79.5555 77.4914H80.3129V83.9957H80.0394L75.9661 79.0901V83.8905H75.2087V77.3862H75.4822L79.5555 82.3002V77.4914Z" fill="#6D6D6D"/>
<path d="M86.6922 83.8905L86.1494 82.5905H83.006L82.4632 83.8905H81.6679L84.4409 77.3862H84.7229L87.4959 83.8905H86.6922ZM85.859 81.9131L84.5798 78.762L83.3006 81.9131H85.859Z" fill="#6D6D6D"/>
<path d="M88.8551 83.8905V77.4915H89.6125V83.2132H92.6465V83.8905H88.8551Z" fill="#6D6D6D"/>
<path d="M96.341 83.8905V77.4915H100.347V78.1688H97.0984V80.3691H99.7957V81.0591H97.0984V83.8905H96.341Z" fill="#6D6D6D"/>
<path d="M101.597 83.8905V77.4915H102.354V83.8905H101.597Z" fill="#6D6D6D"/>
<path d="M108.624 77.4914H109.381V83.9957H109.108L105.035 79.0901V83.8905H104.277V77.3862H104.551L108.624 82.3002V77.4914Z" fill="#6D6D6D"/>
<path d="M115.765 83.8905L115.222 82.5905H112.079L111.536 83.8905H110.741L113.514 77.3862H113.796L116.569 83.8905H115.765ZM114.932 81.9131L113.652 78.762L112.373 81.9131H114.932Z" fill="#6D6D6D"/>
<path d="M122.27 77.4914H123.028V83.9957H122.754L118.681 79.0901V83.8905H117.924V77.3862H118.197L122.27 82.3002V77.4914Z" fill="#6D6D6D"/>
<path d="M124.547 80.6932C124.526 79.7802 124.85 78.9977 125.511 78.3456C126.171 77.6935 126.962 77.3737 127.871 77.3863C128.435 77.3863 128.948 77.5084 129.42 77.7566C129.887 78.0006 130.257 78.3372 130.531 78.7663L129.967 79.2122C129.445 78.4634 128.746 78.0889 127.884 78.0889C127.16 78.0889 126.554 78.3372 126.066 78.8336C125.578 79.3301 125.334 79.9527 125.334 80.6932C125.334 81.4336 125.578 82.0563 126.066 82.5527C126.554 83.0492 127.16 83.3016 127.884 83.3016C128.751 83.3016 129.445 82.9272 129.967 82.1783L130.531 82.6242C130.257 83.0492 129.891 83.3857 129.42 83.634C128.948 83.8822 128.435 84.0042 127.871 84.0042C126.958 84.0168 126.171 83.6971 125.511 83.045C124.85 82.3929 124.526 81.6103 124.547 80.6974V80.6932Z" fill="#6D6D6D"/>
<path d="M132.075 83.8905V77.4915H132.832V83.8905H132.075Z" fill="#6D6D6D"/>
<path d="M139.199 83.8905L138.656 82.5905H135.513L134.97 83.8905H134.175L136.948 77.3862H137.23L140.003 83.8905H139.199ZM138.366 81.9131L137.087 78.762L135.807 81.9131H138.366Z" fill="#6D6D6D"/>
<path d="M141.362 83.8905V77.4915H142.119V83.2132H145.153V83.8905H141.362Z" fill="#6D6D6D"/>
<path d="M152.807 83.8905L152.265 82.5905H149.121L148.578 83.8905H147.783L150.556 77.3862H150.838L153.611 83.8905H152.807ZM151.974 81.9131L150.695 78.762L149.416 81.9131H151.974Z" fill="#6D6D6D"/>
<path d="M154.966 83.8905V77.4915H156.868C157.929 77.4915 158.774 77.786 159.406 78.3792C160.037 78.9724 160.352 79.7381 160.352 80.6805C160.352 81.6229 160.037 82.3886 159.401 82.986C158.766 83.5876 157.924 83.8863 156.872 83.8863H154.97L154.966 83.8905ZM155.724 83.2132H156.86C157.689 83.2132 158.345 82.9776 158.833 82.5064C159.321 82.0352 159.565 81.4251 159.565 80.6847C159.565 79.9442 159.321 79.33 158.838 78.8672C158.354 78.4044 157.693 78.173 156.86 78.173H155.724V83.2132Z" fill="#6D6D6D"/>
<path d="M166.092 77.4915H166.925L164.152 83.9957H163.87L161.097 77.4915H161.93L164.017 82.5148L166.092 77.4915Z" fill="#6D6D6D"/>
<path d="M168.284 83.8905V77.4915H169.042V83.8905H168.284Z" fill="#6D6D6D"/>
<path d="M170.485 82.62L171.049 82.2035C171.529 82.9355 172.122 83.2973 172.833 83.2973C173.22 83.2973 173.532 83.2006 173.767 83.007C174.003 82.8135 174.121 82.5527 174.121 82.2329C174.121 81.9595 174.045 81.7575 173.894 81.6187C173.742 81.4798 173.46 81.3116 173.056 81.1096L172.337 80.7688C171.853 80.5417 171.491 80.3018 171.251 80.041C171.011 79.7802 170.893 79.452 170.893 79.0523C170.893 78.5601 171.083 78.1604 171.457 77.8491C171.832 77.5377 172.286 77.3821 172.825 77.3821C173.246 77.3821 173.633 77.4788 173.982 77.6766C174.335 77.8743 174.617 78.1352 174.832 78.4675L174.281 78.884C173.919 78.3497 173.431 78.0805 172.816 78.0805C172.492 78.0805 172.223 78.1646 172.008 78.3329C171.79 78.5012 171.684 78.7284 171.684 79.0103C171.684 79.1996 171.726 79.351 171.811 79.4772C171.886 79.595 171.987 79.6918 172.109 79.7675C172.231 79.8433 172.433 79.9527 172.711 80.0873L173.418 80.4281C173.94 80.6889 174.323 80.9497 174.558 81.2148C174.794 81.4798 174.912 81.8122 174.912 82.2119C174.912 82.7336 174.718 83.1627 174.331 83.4951C173.944 83.8274 173.448 83.9957 172.846 83.9957C172.353 83.9957 171.903 83.8737 171.487 83.6339C171.07 83.3941 170.742 83.0533 170.489 82.62H170.485Z" fill="#6D6D6D"/>
<path d="M176.136 80.6932C176.115 79.7802 176.435 78.9977 177.096 78.3456C177.756 77.6935 178.539 77.3737 179.452 77.3863C180.357 77.3737 181.144 77.6935 181.809 78.3456C182.474 78.9977 182.798 79.7802 182.777 80.6932C182.798 81.6061 182.474 82.3887 181.809 83.0408C181.144 83.6929 180.357 84.0126 179.452 84C178.548 84.021 177.765 83.7013 177.1 83.0408C176.435 82.3802 176.115 81.5977 176.136 80.6932ZM181.994 80.6848C182.006 79.9611 181.762 79.3427 181.266 78.8336C180.769 78.3245 180.168 78.0721 179.461 78.0889C178.737 78.0889 178.131 78.3372 177.647 78.8294C177.163 79.3216 176.919 79.9443 176.919 80.6848C176.919 81.4252 177.163 82.0521 177.647 82.5527C178.131 83.0534 178.737 83.3058 179.461 83.3058C180.163 83.3184 180.765 83.066 181.266 82.5527C181.762 82.0395 182.006 81.4168 181.994 80.6848Z" fill="#6D6D6D"/>
<path d="M189.295 83.8905H188.411L186.425 81.2064H185.057V83.8905H184.3V77.4915H186.551C187.165 77.4915 187.658 77.6639 188.036 78.0089C188.411 78.3539 188.6 78.7999 188.6 79.3426C188.6 79.7759 188.483 80.1504 188.243 80.4617C188.003 80.773 187.675 80.9918 187.254 81.118L189.299 83.8905H189.295ZM185.057 78.1688V80.5248H186.522C186.93 80.5248 187.245 80.4196 187.473 80.2093C187.7 79.9989 187.813 79.7128 187.813 79.351C187.813 78.9892 187.7 78.7115 187.468 78.4928C187.237 78.274 186.926 78.1688 186.522 78.1688H185.057Z" fill="#6D6D6D"/>
</g>
<defs>
<clipPath id="clip0_82_597">
<rect width="282" height="84" fill="white"/>
</clipPath>
</defs>
</svg>
