<svg width="41" height="40" viewBox="0 0 41 40" fill="none" xmlns="http://www.w3.org/2000/svg">
<path d="M21.047 22.2512L32.588 11.4815V29.9164H7.97591V11.495L19.2334 22.2412C19.7388 22.7242 20.5351 22.7288 21.0461 22.2512H21.047ZM40.3977 5.15952V34.4962C40.3977 37.3112 38.0758 39.5924 35.2108 39.5924H5.35304C2.48897 39.5924 0.166229 37.3112 0.166229 34.4962V5.15952C0.166229 2.34543 2.48897 0.0632324 5.35304 0.0632324H35.2108C38.0758 0.0632324 40.3977 2.34543 40.3977 5.15952ZM35.2044 8.47111C35.2044 8.46387 35.2044 8.45844 35.2044 8.45392C35.2044 7.74475 34.6171 7.16854 33.8962 7.16854H6.6677C6.6585 7.16854 6.64836 7.16854 6.63547 7.16945C6.6097 7.16945 6.58484 7.17126 6.55906 7.17306L6.53421 7.17487C6.49462 7.17849 6.45595 7.18482 6.41728 7.19296C6.40255 7.19568 6.38783 7.19839 6.37402 7.20201C6.35376 7.20653 6.33351 7.21106 6.31417 7.21648L6.26078 7.23186C6.235 7.24 6.21014 7.24995 6.18897 7.25809C6.16964 7.26533 6.15123 7.27257 6.13281 7.28161C6.1098 7.29156 6.08678 7.30242 6.06377 7.31418C6.05272 7.3196 6.04259 7.32503 6.03706 7.32865L6.01405 7.34131C5.99472 7.35217 5.97539 7.36393 5.95514 7.37659L5.94225 7.38564C5.9358 7.39016 5.92935 7.39378 5.92291 7.3983C5.89713 7.41549 5.87228 7.43358 5.84834 7.45348L5.82072 7.47609C5.79494 7.4978 5.771 7.51951 5.74983 7.54032C5.74154 7.54846 5.73327 7.5575 5.72498 7.56655C5.70749 7.58373 5.69184 7.60092 5.67526 7.61901L5.64488 7.6561C5.62738 7.67781 5.61082 7.69952 5.59425 7.72213V7.72394C5.5878 7.73027 5.5832 7.7366 5.58044 7.74203C5.5611 7.77007 5.54454 7.79811 5.52797 7.82616L5.49482 7.88857C5.48562 7.90576 5.47733 7.92294 5.47089 7.93832L5.45062 7.98445C5.44326 8.00435 5.4359 8.02335 5.42945 8.04325C5.42577 8.0523 5.42209 8.06225 5.41933 8.07129L5.41564 8.08305C5.40551 8.11652 5.39724 8.14908 5.38895 8.18346L5.38711 8.1925C5.38435 8.20607 5.38251 8.21873 5.37975 8.23321C5.37514 8.25853 5.37053 8.28386 5.36869 8.30738C5.36685 8.32004 5.36593 8.33271 5.36501 8.34537C5.36133 8.38246 5.35948 8.41864 5.35948 8.45573V31.2036C5.35948 31.9127 5.94685 32.4889 6.6677 32.4889H33.8962C34.6171 32.4889 35.2044 31.9127 35.2044 31.2036V8.48829C35.2044 8.48196 35.2044 8.47653 35.2044 8.47111ZM30.6547 9.7393H9.89266L20.1549 19.5366L30.6547 9.7393Z" fill="#43B0E7"/>
</svg>
