<svg width="34" height="33" viewBox="0 0 34 33" fill="none" xmlns="http://www.w3.org/2000/svg">
<path d="M17.6612 18.6417L27.1953 9.74474V24.974H6.86303V9.75595L16.1629 18.6335C16.5805 19.0325 17.2383 19.0362 17.6604 18.6417H17.6612ZM33.647 4.5221V28.7574C33.647 31.0829 31.7289 32.9675 29.3621 32.9675H4.69626C2.33022 32.9675 0.411377 31.0829 0.411377 28.7574V4.5221C0.411377 2.19736 2.33022 0.312012 4.69626 0.312012H29.3621C31.7289 0.312012 33.647 2.19736 33.647 4.5221ZM29.3568 7.25784C29.3568 7.25186 29.3568 7.24738 29.3568 7.24364C29.3568 6.65779 28.8715 6.18178 28.276 6.18178H5.78231C5.7747 6.18178 5.76633 6.18178 5.75568 6.18252C5.73439 6.18252 5.71386 6.18402 5.69256 6.18551L5.67203 6.18701C5.63932 6.19 5.60738 6.19523 5.57544 6.20195C5.56327 6.2042 5.5511 6.20644 5.53969 6.20943C5.52296 6.21316 5.50623 6.2169 5.49025 6.22138L5.44615 6.23409C5.42485 6.24081 5.40431 6.24903 5.38682 6.25576C5.37085 6.26173 5.35564 6.26771 5.34043 6.27519C5.32142 6.28341 5.3024 6.29237 5.28339 6.30209C5.27426 6.30657 5.26589 6.31105 5.26133 6.31404L5.24232 6.32451C5.22635 6.33347 5.21038 6.34319 5.19365 6.35365L5.183 6.36112C5.17768 6.36486 5.17235 6.36785 5.16703 6.37158C5.14573 6.38578 5.1252 6.40073 5.10543 6.41717L5.08261 6.43585C5.06131 6.45378 5.04154 6.47172 5.02404 6.4889C5.0172 6.49563 5.01036 6.5031 5.00352 6.51057C4.98907 6.52477 4.97613 6.53897 4.96244 6.55392L4.93734 6.58455C4.92289 6.60249 4.90921 6.62042 4.89552 6.6391V6.6406C4.89019 6.64583 4.88639 6.65106 4.88411 6.65554C4.86814 6.67871 4.85445 6.70187 4.84076 6.72504L4.81338 6.7766C4.80578 6.7908 4.79893 6.805 4.79361 6.8177L4.77687 6.85581C4.77078 6.87225 4.7647 6.88794 4.75938 6.90438C4.75634 6.91186 4.75329 6.92008 4.75101 6.92755L4.74797 6.93726C4.7396 6.96491 4.73276 6.99181 4.72592 7.02021L4.7244 7.02768C4.72211 7.03889 4.7206 7.04935 4.71831 7.06131C4.71451 7.08223 4.7107 7.10316 4.70918 7.12258C4.70766 7.13305 4.7069 7.14351 4.70614 7.15397C4.7031 7.18461 4.70158 7.2145 4.70158 7.24514V26.0374C4.70158 26.6232 5.18681 27.0992 5.78231 27.0992H28.276C28.8715 27.0992 29.3568 26.6232 29.3568 26.0374V7.27204C29.3568 7.26681 29.3568 7.26232 29.3568 7.25784ZM25.5982 8.3055H8.44647L16.9242 16.3991L25.5982 8.3055Z" fill="white"/>
</svg>
