<svg width="29" height="28" viewBox="0 0 29 28" fill="none" xmlns="http://www.w3.org/2000/svg">
<rect x="0.113892" y="0.519775" width="27.9293" height="27.4119" rx="4" fill="white"/>
<path d="M15.6705 24.8082H15.1038C13.9025 24.8078 12.7011 24.8078 11.4997 24.8078H10.9346L10.933 24.2032C10.933 24.1042 10.933 24.0052 10.933 23.9061L10.9338 23.8722C10.9319 22.596 10.9312 21.3193 10.9308 20.0423C10.9308 18.8182 10.9315 17.5941 10.933 16.3704L10.9323 16.3421C10.9323 16.231 10.9323 16.1198 10.9323 16.0087C10.6546 16.0095 10.3773 16.0095 10.1061 16.0095C9.65272 16.0095 9.18426 16.0095 8.72412 16.0131C8.72147 16.0131 8.71845 16.0131 8.71581 16.0131C8.24395 16.0131 8.0373 15.6672 8.00405 15.3698L7.9999 15.3326V15.2954C8.00141 14.8484 8.00179 14.3966 8.00103 13.9521C8.00179 13.5556 8.00179 13.1555 8.00028 12.7599C7.99952 12.5118 7.99839 12.264 7.9965 12.0163C7.99461 11.7767 8.06186 11.5819 8.19635 11.438C8.39809 11.2218 8.65007 11.2234 8.74527 11.2242C9.21146 11.2279 9.68597 11.2279 10.145 11.2279C10.4034 11.2279 10.6675 11.2279 10.9315 11.2287C10.9312 11.1818 10.9304 11.1353 10.93 11.09V11.0816L10.9308 11.0137C10.9353 10.7146 10.9315 10.4059 10.9281 10.1076L10.9262 9.95728C10.9198 9.41211 10.9183 8.87341 10.9674 8.31895C11.066 7.19992 11.3928 6.28174 11.9663 5.51269C12.7585 4.44943 13.8862 3.85132 15.318 3.73372C16.3373 3.64966 17.3146 3.77332 18.3947 3.93093C18.6913 3.97458 19.0075 4.2017 19.006 4.71009C19.0052 4.96348 19.0045 5.21565 19.0041 5.46864C19.0033 5.78992 19.0033 6.10999 19.0041 6.43006V6.47451C19.0033 6.81357 19.0033 7.15183 19.0041 7.49008V7.52726L18.9999 7.56444C18.9667 7.85743 18.7616 8.20094 18.292 8.20377C18.1189 8.20498 17.9463 8.20215 17.7789 8.19933C17.3959 8.19326 17.0339 8.18761 16.6777 8.22398C16.2549 8.26762 15.7396 8.48787 15.6875 9.29007C15.6592 9.72127 15.6607 10.1541 15.6656 10.6342C15.6656 10.6475 15.6656 10.6609 15.6656 10.6742C15.6626 10.8569 15.6626 11.0432 15.6641 11.2283C16.063 11.2266 16.462 11.2266 16.8511 11.2266C17.2735 11.2266 17.7106 11.2266 18.1397 11.2246C18.2406 11.2246 18.5081 11.2226 18.7038 11.4663C18.8349 11.63 18.8825 11.8397 18.8454 12.0895C18.8129 12.3065 18.7808 12.5231 18.7495 12.7397C18.6108 13.6837 18.482 14.6007 18.3747 15.3734C18.3316 15.6817 18.1208 16.0099 17.6584 16.0103H17.6546C17.3807 16.0095 17.1065 16.0099 16.8322 16.0103C16.4506 16.0103 16.0592 16.0107 15.6682 16.0083C15.6682 16.1279 15.6682 16.2475 15.6682 16.3671L15.6675 16.3991C15.6675 16.4027 15.6675 16.4068 15.6675 16.4112C15.6705 18.2108 15.6705 20.0386 15.6705 21.7566V24.8078V24.8082ZM12.0668 23.595C12.8904 23.595 13.7139 23.595 14.5371 23.595V21.7566C14.5371 20.0395 14.5371 18.212 14.5341 16.4124C14.5341 16.393 14.5341 16.3748 14.5349 16.3579C14.5349 16.1865 14.5349 16.0176 14.5345 15.8487V15.5969C14.5341 15.5047 14.5334 15.2227 14.7381 15.0056C14.9433 14.7882 15.2024 14.7915 15.2874 14.7927C15.8008 14.7983 16.3248 14.7979 16.8314 14.7979C16.9905 14.7979 17.1499 14.7979 17.309 14.7979C17.4045 14.1141 17.5137 13.3431 17.6297 12.553C17.6354 12.515 17.6407 12.477 17.6463 12.4386C17.3792 12.439 17.1125 12.439 16.8515 12.439C16.3305 12.439 15.7921 12.439 15.2632 12.4427C15.1952 12.4431 14.9867 12.4451 14.7997 12.2952C14.6886 12.2063 14.553 12.0389 14.5356 11.7472C14.5337 11.7185 14.533 11.6865 14.5337 11.6526V11.6433L14.533 11.5637C14.53 11.2658 14.5269 10.9579 14.5318 10.6508C14.5269 10.1428 14.5254 9.68288 14.5564 9.20601C14.6365 7.97544 15.4076 7.13647 16.5689 7.01725C16.9875 6.97442 17.3981 6.98088 17.7952 6.98694C17.8197 6.98694 17.8447 6.98775 17.8692 6.98816C17.8692 6.8164 17.8692 6.64465 17.8696 6.4733V6.43086C17.8688 6.11039 17.8696 5.7887 17.8696 5.46702C17.8696 5.3377 17.8696 5.20838 17.8704 5.07906C17.0011 4.95822 16.2002 4.87659 15.4034 4.94246C14.2821 5.0346 13.4476 5.46783 12.8514 6.2676C12.4196 6.84711 12.1722 7.55515 12.0947 8.4321C12.0509 8.92756 12.0528 9.4307 12.0585 9.94556L12.06 10.0915C12.0638 10.3986 12.0675 10.7162 12.0626 11.0331L12.0619 11.0832C12.0641 11.2679 12.0656 11.4651 12.0645 11.6627V11.6777C12.0653 11.7076 12.0653 11.7488 12.0611 11.7957C12.0324 12.1198 11.8065 12.4431 11.3637 12.4431C11.3618 12.4431 11.3596 12.4431 11.3577 12.4431C10.9534 12.4406 10.5413 12.4406 10.1427 12.4406C9.81064 12.4406 9.47025 12.4406 9.13024 12.439C9.13062 12.5445 9.131 12.6504 9.13137 12.7559C9.13288 13.1539 9.13326 13.5568 9.13213 13.9529C9.13251 14.2321 9.13288 14.5154 9.13213 14.7991C9.45891 14.7979 9.78495 14.7979 10.1034 14.7979C10.5126 14.7979 10.9353 14.7979 11.3505 14.7951C11.5632 14.7943 11.7366 14.863 11.8673 15.0024C11.998 15.1414 12.0638 15.3285 12.0634 15.5585V15.6038C12.0634 15.847 12.0626 16.0899 12.0626 16.3332C12.0626 16.3457 12.0634 16.3587 12.0634 16.372C12.0619 17.5961 12.0615 18.8198 12.0611 20.0431C12.0611 21.2272 12.0623 22.4117 12.0638 23.5962L12.0668 23.595Z" fill="#2AA3E0"/>
</svg>
