<svg width="41" height="40" viewBox="0 0 41 40" fill="none" xmlns="http://www.w3.org/2000/svg">
<rect x="0.602356" y="0.792572" width="39.5322" height="38.7999" rx="4" fill="#43B0E7"/>
<path d="M22.6218 35.1713H21.8197C20.1193 35.1708 18.4188 35.1708 16.7183 35.1708H15.9184L15.9162 34.315C15.9162 34.1749 15.9162 34.0347 15.9162 33.8946L15.9173 33.8465C15.9146 32.0401 15.9136 30.2331 15.913 28.4255C15.913 26.6929 15.9141 24.9602 15.9162 23.2282L15.9152 23.1881C15.9152 23.0308 15.9152 22.8735 15.9152 22.7162C15.5221 22.7173 15.1296 22.7173 14.7457 22.7173C14.104 22.7173 13.4409 22.7173 12.7896 22.7225C12.7859 22.7225 12.7816 22.7225 12.7779 22.7225C12.11 22.7225 11.8175 22.2328 11.7704 21.8118L11.7645 21.7592V21.7066C11.7667 21.0739 11.7672 20.4344 11.7661 19.8052C11.7672 19.244 11.7672 18.6778 11.7651 18.1177C11.764 17.7665 11.7624 17.4159 11.7597 17.0652C11.7571 16.726 11.8522 16.4503 12.0426 16.2467C12.3282 15.9406 12.6848 15.9429 12.8196 15.9441C13.4794 15.9492 14.1511 15.9492 14.8008 15.9492C15.1665 15.9492 15.5403 15.9492 15.9141 15.9504C15.9136 15.884 15.9125 15.8182 15.912 15.7542V15.7422L15.913 15.6461C15.9194 15.2228 15.9141 14.7857 15.9093 14.3636L15.9066 14.1508C15.8975 13.3791 15.8954 12.6166 15.9649 11.8318C16.1045 10.2479 16.567 8.94829 17.3787 7.85974C18.5001 6.35476 20.0963 5.50817 22.1229 5.34171C23.5656 5.22273 24.949 5.39777 26.4778 5.62086C26.8976 5.68264 27.3451 6.00411 27.343 6.72371C27.3419 7.08237 27.3409 7.43931 27.3403 7.79739C27.3393 8.25214 27.3393 8.70518 27.3403 9.15822V9.22114C27.3393 9.70107 27.3393 10.1798 27.3403 10.6586V10.7113L27.3344 10.7639C27.2874 11.1786 26.997 11.6648 26.3324 11.6688C26.0874 11.6705 25.8431 11.6665 25.6062 11.6625C25.064 11.6539 24.5517 11.6459 24.0474 11.6974C23.4491 11.7592 22.7197 12.0709 22.6459 13.2064C22.6058 13.8167 22.6079 14.4294 22.6149 15.1089C22.6149 15.1278 22.6149 15.1467 22.6149 15.1656C22.6106 15.4241 22.6106 15.6878 22.6127 15.9498C23.1774 15.9475 23.7421 15.9475 24.2929 15.9475C24.8907 15.9475 25.5094 15.9475 26.1169 15.9446C26.2596 15.9446 26.6382 15.9418 26.9152 16.2867C27.1008 16.5184 27.1681 16.8153 27.1157 17.1688C27.0698 17.4759 27.0243 17.7825 26.9799 18.0891C26.7837 19.4254 26.6013 20.7233 26.4495 21.817C26.3885 22.2534 26.0901 22.7179 25.4356 22.7185H25.4303C25.0426 22.7173 24.6544 22.7179 24.2661 22.7185C23.726 22.7185 23.1721 22.7191 22.6186 22.7156C22.6186 22.8849 22.6186 23.0543 22.6186 23.2236L22.6175 23.2688C22.6175 23.2739 22.6175 23.2796 22.6175 23.2859C22.6218 25.8331 22.6218 28.4204 22.6218 30.852V35.1708V35.1713ZM17.521 33.4541C18.6867 33.4541 19.8524 33.4541 21.0176 33.4541V30.852C21.0176 28.4215 21.0176 25.8348 21.0133 23.2876C21.0133 23.2602 21.0133 23.2344 21.0144 23.2104C21.0144 22.9679 21.0144 22.7288 21.0139 22.4897V22.1333C21.0133 22.0029 21.0123 21.6036 21.3021 21.2965C21.5925 20.9887 21.9593 20.9933 22.0796 20.995C22.8063 21.003 23.548 21.0024 24.2651 21.0024C24.4902 21.0024 24.7158 21.0024 24.941 21.0024C25.0763 20.0346 25.2308 18.9432 25.395 17.8249C25.403 17.7711 25.4105 17.7173 25.4185 17.663C25.0404 17.6636 24.6629 17.6636 24.2934 17.6636C23.556 17.6636 22.794 17.6636 22.0454 17.6687C21.9491 17.6693 21.6539 17.6721 21.3893 17.4599C21.232 17.3341 21.0401 17.0973 21.0155 16.6843C21.0128 16.6437 21.0117 16.5985 21.0128 16.5504V16.5373L21.0117 16.4246C21.0075 16.003 21.0032 15.5671 21.0101 15.1324C21.0032 14.4134 21.001 13.7624 21.0449 13.0874C21.1582 11.3456 22.2496 10.1581 23.8934 9.98936C24.4859 9.92873 25.0672 9.93788 25.6292 9.94646C25.6639 9.94646 25.6992 9.94761 25.734 9.94818C25.734 9.70507 25.734 9.46196 25.7345 9.21943V9.15937C25.7334 8.70576 25.7345 8.25043 25.7345 7.7951C25.7345 7.61206 25.7345 7.42901 25.7356 7.24596C24.5052 7.07493 23.3715 6.95938 22.2438 7.05262C20.6567 7.18304 19.4754 7.79625 18.6316 8.92827C18.0204 9.74854 17.6702 10.7507 17.5605 11.992C17.4985 12.6933 17.5012 13.4055 17.5092 14.1342L17.5113 14.3407C17.5167 14.7754 17.522 15.225 17.5151 15.6735L17.514 15.7444C17.5172 16.0059 17.5194 16.285 17.5178 16.5647V16.5859C17.5188 16.6282 17.5188 16.6866 17.513 16.7529C17.4723 17.2117 17.1525 17.6693 16.5258 17.6693C16.5232 17.6693 16.5199 17.6693 16.5173 17.6693C15.9451 17.6659 15.3617 17.6659 14.7976 17.6659C14.3275 17.6659 13.8457 17.6659 13.3645 17.6636C13.365 17.8129 13.3655 17.9627 13.3661 18.112C13.3682 18.6755 13.3687 19.2458 13.3671 19.8063C13.3677 20.2016 13.3682 20.6026 13.3671 21.0042C13.8297 21.0024 14.2912 21.0024 14.742 21.0024C15.3211 21.0024 15.9194 21.0024 16.5071 20.9984C16.8082 20.9973 17.0536 21.0945 17.2386 21.2919C17.4237 21.4887 17.5167 21.7535 17.5162 22.079V22.143C17.5162 22.4874 17.5151 22.8312 17.5151 23.1755C17.5151 23.1933 17.5162 23.2116 17.5162 23.2304C17.514 24.9631 17.5135 26.6952 17.513 28.4267C17.513 30.1027 17.5146 31.7793 17.5167 33.4558L17.521 33.4541Z" fill="white"/>
</svg>
