<svg width="41" height="40" viewBox="0 0 41 40" fill="none" xmlns="http://www.w3.org/2000/svg">
<path d="M25.547 19.845C25.5397 22.6772 23.2114 24.9558 20.3289 24.9522C17.4464 24.9485 15.1246 22.6645 15.1246 19.8315C15.1246 16.9866 17.4621 14.699 20.3584 14.7089C23.2399 14.7198 25.5544 17.012 25.547 19.845ZM33.3779 11.9916C33.3807 17.2444 33.3926 22.4981 33.3733 27.7509C33.3641 30.1217 31.3599 32.2863 28.958 32.5912C28.726 32.6201 28.4921 32.6491 28.2592 32.6491C22.9242 32.6509 17.5891 32.6626 12.2541 32.6427C9.8669 32.6337 7.64174 30.6355 7.35267 28.3108C7.32597 28.0928 7.29467 27.873 7.29467 27.6541C7.29191 22.4013 7.27994 17.1476 7.30019 11.8949C7.3094 9.54753 9.32833 7.36574 11.7017 7.07266C12.0341 7.03195 12.371 7.01024 12.7061 7.00934C15.2563 7.00391 17.8064 7.00663 20.3575 7.00663V7.01296C23.0604 7.01296 25.7643 6.99487 28.4673 7.01838C30.8066 7.03919 33.0428 9.05093 33.3217 11.3349C33.3484 11.5529 33.3807 11.7727 33.3807 11.9916H33.3779ZM28.1708 19.817C28.1644 15.5647 24.6503 12.1237 20.3225 12.131C15.9946 12.1382 12.4944 15.59 12.5008 19.8432C12.5073 24.0955 16.0213 27.5365 20.3492 27.5302C24.6752 27.5238 28.1782 24.0693 28.1708 19.817ZM28.8549 9.55477C27.8053 9.52401 26.9123 10.3716 26.8737 11.4362C26.835 12.5 27.6811 13.3729 28.7821 13.4064C29.8574 13.4389 30.7504 12.6022 30.7928 11.5231C30.8324 10.4937 29.9394 9.58643 28.8549 9.55477ZM40.4511 5.15952V34.4962C40.4511 37.3112 38.1283 39.5924 35.2643 39.5924H5.40554C2.54054 39.5924 0.218719 37.3102 0.218719 34.4962V5.15952C0.218719 2.34543 2.54146 0.0632324 5.40554 0.0632324H35.2633C38.1283 0.0632324 40.4511 2.34543 40.4511 5.15952ZM36.0091 11.3467C35.9639 11.1242 35.9234 10.9008 35.8746 10.6791C35.3407 8.26577 33.9763 6.45756 31.7604 5.29158C30.5884 4.67558 29.3235 4.4223 27.9931 4.42501C22.8818 4.43406 17.7696 4.40692 12.6582 4.43677C9.23627 4.45667 6.7874 6.0496 5.31716 9.07354C4.83751 10.0604 4.65983 11.1269 4.66167 12.225C4.66812 15.9147 4.66443 19.6044 4.66443 23.2941C4.66443 24.6781 4.66259 26.0612 4.66443 27.4451C4.66996 30.8852 6.81502 33.8024 10.1403 34.8679C10.5822 35.01 11.0518 35.0706 11.5075 35.1701C11.5737 35.1845 11.6382 35.2117 11.7036 35.2325H28.9681C29.1946 35.1882 29.421 35.1484 29.6466 35.1004C32.1111 34.5731 33.9496 33.2235 35.14 31.038C35.581 30.2294 35.8433 29.3601 35.9501 28.4465C35.9557 28.4003 35.9879 28.3578 36.0081 28.3144V11.3476L36.0091 11.3467Z" fill="#43B0E7"/>
</svg>
