<svg width="10" height="19" viewBox="0 0 10 19" fill="none" xmlns="http://www.w3.org/2000/svg">
<path d="M9.44846 17.0875C9.42157 17.1361 9.39444 17.1853 9.36695 17.2335C9.25309 17.4229 9.11119 17.5813 8.94816 17.701C8.39784 18.1253 7.76732 18.3751 7.10488 18.4313C6.48881 18.4901 5.94279 18.2239 5.45734 17.6745C4.98835 17.1371 4.5588 16.5461 4.17503 15.9103C3.22008 14.3679 2.4345 12.6767 1.84262 10.8893C1.38267 9.46006 1.05332 7.98095 0.861441 6.48279C0.731212 5.50757 0.6462 4.53306 0.669858 3.55716C0.680056 3.2283 0.707189 2.90245 0.751087 2.58169C0.807166 2.1573 0.992656 1.81488 1.2292 1.52526C1.59125 1.09341 2.03532 0.784066 2.52594 0.621941C2.80715 0.522152 3.09499 0.44587 3.38665 0.37988C3.61301 0.331868 3.84874 0.344488 4.0792 0.416958C4.23039 0.467523 4.36771 0.581255 4.46817 0.739122C4.69945 1.08995 4.86908 1.49646 4.96418 1.92784C5.13619 2.65355 5.24273 3.39506 5.28168 4.13748C5.29853 4.43963 5.30386 4.74169 5.30165 5.0426C5.30379 5.1717 5.2741 5.29498 5.21671 5.39528C5.15933 5.49557 5.07712 5.56787 4.98154 5.60209C4.9038 5.63604 4.8232 5.66071 4.74071 5.6758C4.37072 5.73897 3.9925 5.74647 3.61368 5.69814C3.56068 5.69261 3.50693 5.69807 3.45369 5.69328C3.06506 5.65774 2.82945 6.03607 2.76699 6.34899C2.74266 6.49359 2.73478 6.64356 2.74359 6.79452C2.77573 7.4251 2.87161 8.05471 3.02887 8.66781C3.42344 10.3142 4.04334 11.8819 4.85881 13.2954C5.07062 13.6603 5.39425 13.8115 5.74015 13.6972C5.87417 13.6518 5.99798 13.5736 6.10497 13.4668C6.37985 13.1965 6.65472 12.9262 6.93438 12.6589C7.01676 12.5856 7.10463 12.5221 7.19702 12.4692C7.31522 12.3994 7.45228 12.3855 7.5852 12.43C7.71812 12.4746 7.8388 12.5747 7.92697 12.7136C8.2338 13.1902 8.47776 13.7151 8.71583 14.2425C8.99251 14.8345 9.23075 15.4513 9.42794 16.086C9.4636 16.1962 9.48568 16.3104 9.51114 16.4231C9.5413 16.5644 9.54596 16.7099 9.52474 16.8484L9.44846 17.0875Z" fill="#2AA3E0"/>
</svg>
