<svg width="42" height="40" viewBox="0 0 42 40" fill="none" xmlns="http://www.w3.org/2000/svg">
<path d="M35.8954 0.0632324H6.03756C3.17256 0.0632324 0.850739 2.34543 0.850739 5.15952V34.4962C0.850739 37.3112 3.17349 39.5924 6.03756 39.5924H35.8954C38.7604 39.5924 41.0822 37.3102 41.0822 34.4962V5.15952C41.0831 2.34543 38.7604 0.0632324 35.8954 0.0632324ZM35.6431 8.38789C35.5096 8.98851 35.3669 9.58733 35.2436 10.1898C34.4997 13.8134 33.7595 17.438 33.0193 21.0635C32.304 24.5695 31.5896 28.0747 30.8779 31.5817C30.7159 32.3777 30.0825 32.6717 29.3644 32.27C26.9432 30.9177 24.5219 29.5636 22.1016 28.2104C22.0187 28.1643 21.9359 28.1199 21.8245 28.0593C21.7591 28.1362 21.6928 28.2104 21.6321 28.2891C20.6958 29.5102 19.7687 30.7386 18.8177 31.9489C18.6584 32.1506 18.4182 32.3506 18.176 32.4184C17.6062 32.5776 17.0474 32.1452 17.0529 31.4587C17.0713 28.991 17.0593 26.5225 17.0602 24.0539C17.0602 22.8292 16.9737 23.0173 17.921 22.1915C18.8499 21.3819 19.7798 20.5741 20.7096 19.7645C20.7805 19.703 20.8468 19.637 20.8882 19.5302C20.8017 19.5746 20.7133 19.6162 20.6286 19.665C18.756 20.7333 16.8807 21.7962 15.0155 22.8753C14.6031 23.1141 14.2321 23.1277 13.804 22.916C11.5144 21.7826 9.21833 20.6609 6.92044 19.542C6.51444 19.3439 6.26035 19.0653 6.2935 18.6004C6.3248 18.1625 6.59914 17.9265 6.99961 17.7736C15.7272 14.4349 24.4538 11.0916 33.1795 7.74746C33.6398 7.57107 34.0965 7.38564 34.5549 7.20472H34.8993C35.2491 7.32141 35.4931 7.55207 35.645 7.88043V8.38698L35.6431 8.38789ZM9.51017 18.7587C17.5021 15.6967 25.461 12.6484 33.4888 9.57286C32.084 16.452 30.6892 23.2778 29.2871 30.1407C28.6279 29.7726 28.001 29.4225 27.374 29.0724C25.6497 28.1091 23.9254 27.1448 22.201 26.1806C21.5483 25.816 21.1524 25.8965 20.7004 26.4863C20.1204 27.2425 19.5422 27.9996 18.9328 28.7956C18.9162 28.697 18.8987 28.6401 18.8987 28.584C18.8969 27.0444 18.8932 25.5058 18.9061 23.9662C18.907 23.8414 18.9963 23.6831 19.0948 23.5971C21.5492 21.4506 24.0101 19.3113 26.4691 17.1702C27.4274 16.3362 28.3858 15.5031 29.3414 14.6664C29.601 14.4394 29.7327 14.159 29.6461 13.8116C29.5541 13.4453 29.3239 13.201 28.9538 13.0934C28.674 13.012 28.4309 13.1115 28.1934 13.2472C26.017 14.4918 23.8397 15.7356 21.6615 16.9794C19.3029 18.3263 16.9442 19.6741 14.5801 21.0137C14.4751 21.0734 14.2956 21.1123 14.1989 21.0653C12.6569 20.3244 11.1222 19.5682 9.58657 18.8156C9.57 18.8075 9.5562 18.7939 9.50924 18.7596L9.51017 18.7587Z" fill="#43B0E7"/>
</svg>
