<svg width="34" height="33" viewBox="0 0 34 33" fill="none" xmlns="http://www.w3.org/2000/svg">
<path d="M21.2851 16.6539C21.279 18.9936 19.3556 20.876 16.9743 20.873C14.5931 20.87 12.675 18.9832 12.675 16.6427C12.675 14.2926 14.606 12.4028 16.9987 12.411C19.3791 12.4199 21.2919 14.3135 21.2858 16.6539H21.2851ZM27.7542 10.1662C27.7565 14.5056 27.7664 18.8457 27.7504 23.185C27.7428 25.1436 26.0871 26.9318 24.1029 27.1837C23.9112 27.2076 23.718 27.2315 23.5256 27.2315C19.1183 27.233 14.711 27.2427 10.3036 27.2263C8.33154 27.2188 6.49332 25.5681 6.25451 23.6476C6.23245 23.4675 6.20659 23.2859 6.20659 23.1051C6.20431 18.7657 6.19443 14.4256 6.21116 10.0862C6.21876 8.14708 7.88663 6.34468 9.8473 6.10257C10.1219 6.06894 10.4002 6.05101 10.677 6.05026C12.7837 6.04578 14.8904 6.04802 16.9979 6.04802V6.05325C19.2308 6.05325 21.4645 6.0383 23.6975 6.05773C25.63 6.07492 27.4774 7.73684 27.7078 9.62368C27.7299 9.80377 27.7565 9.98536 27.7565 10.1662H27.7542ZM23.4526 16.6308C23.4473 13.1179 20.5443 10.2753 16.969 10.2813C13.3937 10.2873 10.5021 13.1388 10.5074 16.6525C10.5128 20.1653 13.4158 23.0079 16.9911 23.0027C20.5648 22.9975 23.4587 20.1437 23.4526 16.6308ZM24.0177 8.15306C23.1507 8.12766 22.4129 8.82784 22.381 9.70737C22.3491 10.5862 23.048 11.3073 23.9576 11.3349C24.8459 11.3618 25.5836 10.6706 25.6186 9.77911C25.6513 8.92872 24.9136 8.17922 24.0177 8.15306ZM33.5974 4.5221V28.7574C33.5974 31.0829 31.6786 32.9675 29.3126 32.9675H4.64597C2.27917 32.9675 0.361084 31.0821 0.361084 28.7574V4.5221C0.361084 2.19736 2.27993 0.312012 4.64597 0.312012H29.3118C31.6786 0.312012 33.5967 2.19736 33.5967 4.5221H33.5974ZM29.9278 9.63339C29.8906 9.44957 29.8571 9.26499 29.8168 9.08191C29.3757 7.08821 28.2486 5.59443 26.4179 4.6312C25.4498 4.12232 24.4048 3.91308 23.3058 3.91532C19.0833 3.9228 14.86 3.90038 10.6375 3.92504C7.81057 3.94148 5.78754 5.25741 4.57295 7.75552C4.17671 8.57078 4.02993 9.45181 4.03145 10.359C4.03677 13.4071 4.03373 16.4552 4.03373 19.5033C4.03373 20.6466 4.03221 21.7892 4.03373 22.9325C4.03829 25.7743 5.81035 28.1842 8.55742 29.0645C8.92248 29.1818 9.31036 29.2319 9.68682 29.3141C9.74158 29.3261 9.79482 29.3485 9.84882 29.3657H24.1112C24.2983 29.3291 24.4854 29.2962 24.6717 29.2566C26.7077 28.8209 28.2265 27.706 29.2099 25.9006C29.5742 25.2325 29.7909 24.5144 29.8792 23.7597C29.8837 23.7216 29.9103 23.6865 29.9271 23.6506V9.63414L29.9278 9.63339Z" fill="white"/>
</svg>
