<svg width="41" height="40" viewBox="0 0 41 40" fill="none" xmlns="http://www.w3.org/2000/svg">
<path d="M18.4396 7.16764C15.1106 7.76555 12.4067 9.39376 10.3813 12.0568C8.42129 14.633 7.55958 17.5484 7.81367 20.7577C7.98123 22.8699 8.70576 24.8092 9.88785 26.5786C10.0259 26.7857 10.0434 26.9585 9.97807 27.1855C9.57023 28.6057 9.17436 30.0285 8.761 31.5003C8.88436 31.4786 8.95341 31.4713 9.0197 31.4541C10.455 31.0887 11.8911 30.726 13.3236 30.3506C13.5473 30.2918 13.7195 30.3162 13.9193 30.4347C16.8846 32.1787 20.0626 32.7576 23.4505 32.0258C30.0128 30.6084 34.7605 24.5144 33.4679 17.362C32.2361 10.5471 25.3977 5.92025 18.4386 7.16945L18.4396 7.16764ZM27.0925 26.3289C26.3735 26.7251 25.6352 26.9856 24.8932 26.9549C23.9311 26.9829 23.1357 26.6744 22.3219 26.4157C19.3593 25.4741 17.1221 23.589 15.2247 21.2399C14.4063 20.2268 13.6136 19.2037 13.1386 17.9816C12.4177 16.1282 12.8062 14.4946 14.1568 13.0536C14.4505 12.7397 14.8298 12.6067 15.2496 12.595C15.5736 12.585 15.9023 12.595 16.2245 12.6339C16.521 12.6701 16.6572 12.9188 16.7622 13.1594C17.0835 13.893 17.3919 14.6312 17.7067 15.3684C17.8163 15.6262 17.9185 15.8876 18.0409 16.14C18.1671 16.4005 18.1588 16.6501 17.9931 16.8781C17.704 17.2761 17.4103 17.6714 17.0954 18.0495C16.7511 18.4638 16.7318 18.5723 17.0135 19.0309C18.2527 21.0472 19.9604 22.528 22.192 23.4135C22.6616 23.5999 22.842 23.5646 23.1697 23.1729C23.538 22.7324 23.9136 22.2973 24.2589 21.8396C24.4623 21.57 24.7017 21.5121 25.0046 21.5926C25.1021 21.6189 25.1988 21.6514 25.2918 21.6921C26.2695 22.1137 27.2454 22.5415 28.2249 22.9594C28.5287 23.0888 28.6521 23.3086 28.6374 23.6207C28.583 24.7776 28.1844 25.7292 27.0925 26.3307V26.3289ZM35.5798 0.0632324H5.72201C2.85701 0.0632324 0.535187 2.34543 0.535187 5.15952V34.4962C0.535187 37.3112 2.85793 39.5924 5.72201 39.5924H35.5798C38.4448 39.5924 40.7666 37.3102 40.7666 34.4962V5.15952C40.7666 2.34543 38.4439 0.0632324 35.5798 0.0632324ZM35.9527 22.8717C34.5229 29.7816 28.1853 34.8327 20.9805 34.953C18.3355 34.9973 15.8397 34.4084 13.4857 33.2216C13.3503 33.1538 13.1533 33.1312 13.006 33.1683C11.2633 33.6016 9.52328 34.0466 7.78513 34.4953C6.89304 34.7259 6.00372 34.9693 5.11347 35.2071C5.07296 35.1673 5.03154 35.1266 4.99103 35.0868C5.01404 35.0335 5.04443 34.981 5.06008 34.9258C5.74134 32.5016 6.418 30.0765 7.10663 27.655C7.17384 27.4171 7.15635 27.2326 7.0339 27.0128C5.25893 23.8106 4.71576 20.4031 5.38505 16.8274C6.05159 13.2698 7.8238 10.3155 10.6842 8.03873C14.2719 5.18123 18.3954 3.99987 22.9755 4.60321C26.4923 5.06635 29.5221 6.57153 31.959 9.14138C35.6645 13.0482 37.0307 17.6587 35.9527 22.8717Z" fill="#43B0E7"/>
</svg>
